<svg width="32" height="32" viewBox="0 0 32 32" fill="none" xmlns="http://www.w3.org/2000/svg">
<path fill-rule="evenodd" clip-rule="evenodd" d="M27.0495 6.99058C27.5682 6.99058 28 7.42124 28 7.96924V8.4759C28 9.01056 27.5682 9.45456 27.0495 9.45456H4.9518C4.43181 9.45456 4 9.01056 4 8.4759V7.96924C4 7.42124 4.43181 6.99058 4.9518 6.99058H8.83942C9.62913 6.99058 10.3164 6.42925 10.4941 5.63726L10.6976 4.72794C11.014 3.48928 12.0553 2.66663 13.247 2.66663H18.753C19.9317 2.66663 20.9847 3.48928 21.2894 4.66261L21.5072 5.63593C21.6836 6.42926 22.3709 6.99058 23.1619 6.99058H27.0495ZM25.0744 25.512C25.4803 21.7294 26.1909 12.7428 26.1909 12.6521C26.2169 12.3775 26.1274 12.1175 25.9497 11.9081C25.7591 11.7121 25.5179 11.5961 25.2521 11.5961H6.75803C6.4909 11.5961 6.23674 11.7121 6.06038 11.9081C5.88143 12.1175 5.79326 12.3775 5.80622 12.6521C5.80861 12.6688 5.83411 12.9853 5.87674 13.5146C6.06611 15.8656 6.59356 22.4135 6.93439 25.512C7.17558 27.7946 8.67331 29.2293 10.8427 29.2813C12.5168 29.32 14.2415 29.3333 16.0051 29.3333C17.6662 29.3333 19.3532 29.32 21.0792 29.2813C23.3238 29.2426 24.8203 27.8333 25.0744 25.512Z" fill="white"/>
</svg>
