<svg width="20" height="20" viewBox="0 0 20 20" fill="none" xmlns="http://www.w3.org/2000/svg">
<path fill-rule="evenodd" clip-rule="evenodd" d="M2.91699 8.59821C2.91699 4.76499 6.12023 1.66675 9.99486 1.66675C13.8804 1.66675 17.0837 4.76499 17.0837 8.59821C17.0837 10.5298 16.3812 12.3231 15.2249 13.8431C13.9493 15.5197 12.3771 16.9805 10.6074 18.1271C10.2024 18.3921 9.83689 18.4121 9.39237 18.1271C7.61261 16.9805 6.0404 15.5197 4.77574 13.8431C3.61865 12.3231 2.91699 10.5298 2.91699 8.59821ZM7.66218 8.81404C7.66218 10.0982 8.71004 11.1081 9.99486 11.1081C11.2805 11.1081 12.3385 10.0982 12.3385 8.81404C12.3385 7.53991 11.2805 6.48077 9.99486 6.48077C8.71004 6.48077 7.66218 7.53991 7.66218 8.81404Z" fill="white"/>
</svg>
