<svg width="20" height="20" viewBox="0 0 20 20" fill="none" xmlns="http://www.w3.org/2000/svg">
<path fill-rule="evenodd" clip-rule="evenodd" d="M10 17.5C14.1421 17.5 17.5 14.1421 17.5 10C17.5 5.85786 14.1421 2.5 10 2.5C5.85786 2.5 2.5 5.85786 2.5 10C2.5 14.1421 5.85786 17.5 10 17.5ZM10 20C15.5228 20 20 15.5228 20 10C20 4.47715 15.5228 0 10 0C4.47715 0 0 4.47715 0 10C0 15.5228 4.47715 20 10 20Z" fill="#1BAC4B"/>
<path d="M15.8337 10.0001C15.8337 13.2217 13.222 15.8334 10.0003 15.8334C6.77866 15.8334 4.16699 13.2217 4.16699 10.0001C4.16699 6.77842 6.77866 4.16675 10.0003 4.16675C13.222 4.16675 15.8337 6.77842 15.8337 10.0001Z" fill="#1BAC4B"/>
</svg>
