<svg width="34" height="34" viewBox="0 0 34 34" fill="none" xmlns="http://www.w3.org/2000/svg">
<path fill-rule="evenodd" clip-rule="evenodd" d="M24.9311 0.01757C27.3766 -0.135272 29.7881 0.713851 31.6052 2.37813C33.2695 4.19526 34.1186 6.60677 33.9828 9.06923V24.9309C34.1356 27.3933 33.2695 29.8048 31.6222 31.6219C29.8051 33.2862 27.3766 34.1354 24.9311 33.9825H9.0693C6.60682 34.1354 4.19529 33.2862 2.37815 31.6219C0.713857 29.8048 -0.135273 27.3933 0.0175701 24.9309V9.06923C-0.135273 6.60677 0.713857 4.19526 2.37815 2.37813C4.19529 0.713851 6.60682 -0.135272 9.0693 0.01757H24.9311ZM15.2687 25.2364L26.698 13.7732C27.7339 12.7203 27.7339 11.0221 26.698 9.98616L24.4903 7.77843C23.4374 6.72552 21.7391 6.72552 20.6862 7.77843L19.5483 8.93324C19.3785 9.10307 19.3785 9.39177 19.5483 9.56159C19.5483 9.56159 22.2486 12.2448 22.2995 12.3128C22.4863 12.5165 22.6052 12.7883 22.6052 13.0939C22.6052 13.7053 22.1127 14.2148 21.4843 14.2148C21.1956 14.2148 20.9239 14.0959 20.7371 13.9091L17.901 11.09C17.7652 10.9542 17.5274 10.9542 17.3915 11.09L9.29084 19.1907C8.73041 19.7511 8.40774 20.4983 8.39076 21.2965L8.28886 25.3213C8.28886 25.5421 8.35679 25.7459 8.50964 25.8987C8.66248 26.0516 8.86627 26.1365 9.08705 26.1365H13.078C13.8931 26.1365 14.6743 25.8138 15.2687 25.2364Z" fill="#1BAC4B"/>
</svg>
